<svg width="37" height="37" viewBox="0 0 37 37" fill="none" xmlns="http://www.w3.org/2000/svg">
<path d="M33.9167 10.0833H23.125V7H33.9167V10.0833ZM36.5776 25.5C35.8962 27.4995 33.4495 30.125 28.7135 30.125C23.9745 30.125 20.1357 27.4595 20.1357 21.376C20.1357 15.3481 23.7201 12.2494 28.5625 12.2494C33.3139 12.2494 36.2153 14.9966 36.8489 19.0728C36.9692 19.8529 37.017 20.9043 36.9954 22.372H24.6204C24.8208 27.3222 29.99 27.478 31.6936 25.5H36.5776ZM24.7283 19.3333H32.3827C32.2208 16.9484 30.6314 15.9124 28.564 15.9124C26.3039 15.9124 25.0536 17.0964 24.7283 19.3333ZM9.96842 30.1065H0V7.03237H10.7192C19.1614 7.15725 19.3217 15.4252 14.9125 17.6791C20.2483 19.6216 20.4271 30.1065 9.96842 30.1065ZM4.625 16.25H10.1503C14.0168 16.25 14.6304 11.625 9.66933 11.625H4.625V16.25ZM9.85279 20.875H4.625V25.5247H9.77571C14.4855 25.5247 14.1972 20.875 9.85279 20.875Z" fill="white"/>
</svg>
