<svg width="37" height="24" viewBox="0 0 37 24" fill="none" xmlns="http://www.w3.org/2000/svg">
<path d="M33.9167 3.79168H23.125V0.708344H33.9167V3.79168ZM36.5776 19.2083C35.8962 21.2079 33.4495 23.8333 28.7135 23.8333C23.9745 23.8333 20.1357 21.1678 20.1357 15.0844C20.1357 9.05647 23.7201 5.95772 28.5625 5.95772C33.3139 5.95772 36.2153 8.70497 36.8489 12.7811C36.9692 13.5612 37.017 14.6126 36.9954 16.0803H24.6204C24.8208 21.0306 29.99 21.1863 31.6936 19.2083H36.5776ZM24.7283 13.0417H32.3827C32.2208 10.6567 30.6314 9.62072 28.564 9.62072C26.3039 9.62072 25.0536 10.8047 24.7283 13.0417ZM9.96842 23.8148H0V0.740718H10.7192C19.1614 0.865593 19.3217 9.13355 14.9125 11.3875C20.2483 13.33 20.4271 23.8148 9.96842 23.8148ZM4.625 9.95834H10.1503C14.0168 9.95834 14.6304 5.33334 9.66933 5.33334H4.625V9.95834ZM9.85279 14.5833H4.625V19.233H9.77571C14.4855 19.233 14.1972 14.5833 9.85279 14.5833Z" fill="white"/>
</svg>
